<svg xmlns="http://www.w3.org/2000/svg" xmlns:xlink="http://www.w3.org/1999/xlink" version="1.1" viewBox="-249.2 978.78 265.48 214.52">
  <!--
	Exported with Concepts: Smarter Sketching
	Version: 916 on iOS 14.6
	https://concepts.app/
	-->
  <title>Untitled 1</title>
  <desc>Drawing exported from Concepts: Smarter Sketching</desc>
  <defs/>
  <g id="New_Layer_2" opacity="1.000">
    <path id="STROKE_10364588-a117-4bfa-9a57-94d64691e5dc" opacity="1.000" fill="none" stroke="#7f7e7a" stroke-width="6.800" stroke-opacity="1.000" stroke-linecap="round" stroke-linejoin="round" d="M -183.709 1094.337 Q -184.303 1093.484 -184.713 1092.926 Q -185.123 1092.368 -188.756 1085.974 Q -188.819 1086.073 -188.546 1089.430 Q -188.273 1092.787 -186.767 1102.230 Q -185.261 1111.673 -183.726 1118.206 Q -182.191 1124.739 -180.805 1128.612 Q -179.418 1132.486 -178.031 1134.676 Q -176.645 1136.867 -175.851 1139.643 Q -175.058 1142.419 -175.606 1144.606 Q -175.924 1144.803 -176.458 1141.738 Q -176.991 1138.672 -177.173 1137.642 "/>
    <path id="STROKE_572fa0a1-e827-47f2-9498-bd38ce0d9a01" opacity="1.000" fill="none" stroke="#7f7e7a" stroke-width="6.800" stroke-opacity="1.000" stroke-linecap="round" stroke-linejoin="round" d="M -190.893 1094.400 Q -190.977 1094.392 -192.046 1093.761 Q -192.331 1093.839 -189.412 1091.992 Q -186.493 1090.146 -182.674 1086.944 Q -178.855 1083.742 -176.685 1082.052 Q -174.515 1080.361 -173.341 1079.774 Q -172.167 1079.188 -170.853 1079.068 Q -169.540 1078.949 -168.963 1079.324 Q -168.386 1079.700 -168.464 1081.303 Q -168.542 1082.906 -168.908 1084.052 "/>
    <path id="STROKE_c269438b-9cf7-4f51-91e7-730f998eb852" opacity="1.000" fill="none" stroke="#7f7e7a" stroke-width="6.800" stroke-opacity="1.000" stroke-linecap="round" stroke-linejoin="round" d="M -184.033 1113.844 L -184.072 1114.195 Q -183.783 1114.335 -180.756 1113.943 Q -177.729 1113.551 -175.033 1112.521 Q -172.336 1111.491 -167.824 1107.651 Q -163.311 1103.811 -161.077 1102.044 Q -158.844 1100.278 -158.411 1100.005 "/>
    <path id="STROKE_e5bb2be0-1e7f-4d7e-9385-c4e8a5268291" opacity="1.000" fill="none" stroke="#7f7e7a" stroke-width="6.800" stroke-opacity="1.000" stroke-linecap="round" stroke-linejoin="round" d="M -152.019 1074.243 Q -152.056 1074.182 -152.775 1073.163 Q -153.493 1072.144 -154.569 1070.998 Q -154.419 1071.041 -152.648 1076.032 Q -150.878 1081.022 -150.157 1084.663 Q -149.437 1088.303 -148.352 1093.983 Q -147.267 1099.663 -146.732 1102.975 Q -146.197 1106.288 -143.997 1112.874 Q -141.797 1119.459 -139.202 1130.521 Q -139.171 1130.414 -137.561 1129.486 Q -135.952 1128.559 -134.643 1127.593 Q -133.335 1126.627 -132.619 1125.876 Q -131.903 1125.125 -131.206 1124.288 Q -130.510 1123.451 -127.857 1120.446 Q -125.204 1117.441 -123.226 1115.626 Q -121.248 1113.810 -118.161 1112.243 Q -115.074 1110.677 -114.712 1110.428 "/>
    <path id="STROKE_108e4388-7c0f-42bf-a19e-78cce60d509b" opacity="1.000" fill="none" stroke="#7f7e7a" stroke-width="6.800" stroke-opacity="1.000" stroke-linecap="round" stroke-linejoin="round" d="M -102.361 1078.522 Q -102.347 1078.512 -102.753 1077.423 Q -103.159 1076.334 -103.639 1075.675 Q -104.119 1075.016 -104.148 1074.988 Q -104.177 1074.960 -104.879 1074.685 Q -105.582 1074.410 -107.027 1075.524 Q -108.471 1076.639 -109.494 1079.263 Q -110.517 1081.887 -110.714 1085.429 Q -110.910 1088.972 -110.181 1092.184 Q -109.452 1095.395 -108.479 1097.347 Q -107.507 1099.300 -106.577 1100.530 Q -105.647 1101.760 -104.304 1102.654 Q -102.962 1103.549 -100.751 1103.323 Q -98.539 1103.097 -97.021 1102.135 Q -95.502 1101.173 -93.569 1098.762 Q -91.635 1096.351 -90.300 1093.008 Q -88.964 1089.664 -88.481 1086.601 Q -87.998 1083.539 -88.012 1081.949 Q -88.027 1080.359 -88.436 1079.052 Q -88.845 1077.745 -90.439 1076.190 Q -92.033 1074.636 -95.449 1073.292 Q -98.866 1071.948 -107.554 1075.750 Q -107.620 1075.881 -107.456 1076.407 "/>
    <path id="STROKE_b3368ab2-513c-4b65-aa3f-a91d076e35f7" opacity="1.000" fill="none" stroke="#7f7e7a" stroke-width="6.800" stroke-opacity="1.000" stroke-linecap="round" stroke-linejoin="round" d="M -61.164 1043.062 Q -61.233 1042.320 -61.262 1041.775 Q -61.291 1041.229 -61.494 1040.793 Q -61.697 1040.357 -62.074 1039.916 Q -62.451 1039.475 -63.503 1038.491 Q -63.606 1038.417 -64.945 1037.829 Q -66.283 1037.240 -67.486 1037.425 Q -68.689 1037.609 -70.763 1038.921 Q -72.838 1040.234 -74.652 1042.459 Q -76.466 1044.684 -77.531 1047.704 Q -78.596 1050.725 -78.934 1054.679 Q -79.272 1058.634 -78.485 1061.927 Q -77.698 1065.221 -76.833 1067.015 Q -75.967 1068.809 -73.858 1072.327 Q -71.749 1075.846 -69.716 1078.188 Q -67.683 1080.531 -66.237 1081.627 Q -64.792 1082.722 -62.611 1083.158 Q -60.429 1083.594 -57.693 1083.072 Q -54.957 1082.550 -51.509 1080.373 Q -48.061 1078.196 -44.499 1075.316 Q -40.937 1072.436 -38.992 1068.893 L -39.522 1068.437 "/>
  </g>
  <g id="New_Layer_1" opacity="1.000">
    <path id="STROKE_9d75162c-eeae-4c55-9688-a30e5e39ccf1" opacity="1.000" fill="none" stroke="#f8c577" stroke-width="4.633" stroke-opacity="1.000" stroke-linecap="round" stroke-linejoin="round" d="M -98.273 989.810 Q -111.291 986.141 -117.890 985.262 Q -124.489 984.384 -130.082 984.399 Q -135.676 984.415 -141.637 985.748 Q -147.598 987.081 -152.461 989.009 Q -157.324 990.936 -159.992 992.355 Q -162.659 993.775 -167.833 997.330 Q -173.007 1000.885 -178.719 1006.150 Q -184.432 1011.415 -189.511 1017.717 Q -194.591 1024.020 -197.068 1027.671 Q -199.545 1031.321 -203.266 1038.448 Q -206.988 1045.576 -209.822 1052.679 Q -212.655 1059.782 -214.571 1067.152 Q -216.486 1074.523 -217.319 1079.391 Q -218.152 1084.259 -218.612 1092.191 Q -219.072 1100.123 -218.783 1106.292 Q -218.493 1112.461 -216.798 1118.928 Q -215.102 1125.394 -213.331 1129.590 Q -211.560 1133.786 -210.005 1137.093 Q -208.450 1140.400 -204.822 1146.682 Q -201.195 1152.964 -197.191 1157.896 Q -193.186 1162.828 -190.811 1165.269 Q -188.435 1167.709 -184.729 1170.655 Q -181.023 1173.601 -178.656 1175.121 Q -176.288 1176.641 -173.584 1178.234 Q -170.879 1179.827 -165.732 1182.094 Q -160.585 1184.360 -155.046 1185.876 Q -149.506 1187.392 -143.314 1187.541 Q -137.122 1187.690 -133.413 1187.686 Q -129.704 1187.683 -123.555 1186.478 Q -117.406 1185.273 -112.530 1183.961 Q -107.654 1182.649 -100.765 1179.631 Q -93.875 1176.612 -90.279 1174.813 Q -86.684 1173.014 -84.121 1171.631 Q -81.558 1170.248 -79.927 1169.359 Q -78.296 1168.470 -73.955 1165.885 Q -69.613 1163.300 -62.768 1159.077 Q -55.922 1154.855 -45.622 1147.548 Q -35.322 1140.241 -27.760 1133.945 Q -20.198 1127.648 -16.228 1123.948 Q -12.259 1120.247 -10.002 1118.078 Q -7.746 1115.909 -3.645 1110.687 Q 0.456 1105.465 2.456 1102.350 Q 4.457 1099.235 6.298 1095.380 Q 8.138 1091.524 9.103 1088.334 Q 10.069 1085.144 10.440 1080.306 Q 10.812 1075.467 10.626 1072.057 Q 10.440 1068.646 10.021 1066.071 Q 9.603 1063.495 8.082 1058.430 Q 6.561 1053.365 3.783 1047.718 Q 1.006 1042.070 -1.825 1037.943 Q -4.655 1033.817 -6.128 1031.845 Q -7.602 1029.873 -11.247 1025.710 Q -14.893 1021.547 -20.713 1017.426 Q -26.533 1013.306 -31.900 1010.585 Q -37.268 1007.864 -41.608 1006.113 Q -45.948 1004.362 -48.519 1003.234 Q -51.090 1002.106 -60.894 1000.096 Q -70.697 998.086 -83.744 996.568 Q -96.791 995.050 -106.080 993.389 Q -115.370 991.727 -117.881 991.124 "/>
    <path id="STROKE_47a88ae7-a618-444f-825c-dec557d99fd8" opacity="1.000" fill="none" stroke="#f8c577" stroke-width="4.092" stroke-opacity="1.000" stroke-linecap="round" stroke-linejoin="round" d="M -244.243 1003.649 Q -244.030 1003.823 -242.185 1005.034 Q -240.339 1006.246 -239.164 1007.016 Q -237.989 1007.786 -237.142 1008.363 Q -236.295 1008.941 -227.595 1014.793 Q -218.895 1020.646 -213.032 1024.326 Q -207.169 1028.006 -197.161 1033.742 Q -187.154 1039.479 -181.328 1042.775 Q -175.502 1046.072 -172.077 1048.011 Q -168.653 1049.951 -165.403 1051.750 Q -162.154 1053.548 -153.875 1058.376 Q -145.596 1063.205 -140.394 1066.459 Q -135.192 1069.714 -130.007 1073.242 Q -124.822 1076.770 -121.064 1079.280 Q -117.307 1081.789 -108.886 1087.888 Q -100.465 1093.986 -93.166 1099.746 Q -85.866 1105.505 -82.211 1108.476 Q -78.556 1111.446 -76.390 1113.104 Q -74.225 1114.762 -64.586 1123.185 Q -54.948 1131.608 -49.532 1136.734 Q -44.115 1141.860 -40.471 1145.435 Q -36.827 1149.009 -34.005 1151.899 Q -31.182 1154.789 -26.867 1159.484 Q -22.551 1164.178 -14.268 1172.645 Q -5.984 1181.112 -4.069 1183.062 "/>
  </g>
</svg>